<svg width="800" height="80" xmlns="http://www.w3.org/2000/svg">
  <defs>
    <style>
      @keyframes scroll {
        0% { transform: translateX(0); }
        100% { transform: translateX(-4200px); }
      }
      
      .carousel-track {
        animation: scroll 60s linear infinite;
      }
      
      .tech-item {
        fill: #0078d4;
        rx: 8;
      }
      
      .tech-text {
        fill: white;
        font-family: 'Segoe UI', Arial, sans-serif;
        font-size: 14px;
        font-weight: 600;
      }
    </style>
  </defs>
  
  <g class="carousel-track">
    
        <g transform="translate(0, 20)">
          <rect class="tech-item" width="120" height="40"/>
          <text class="tech-text" x="60" y="25" text-anchor="middle">TypeScript</text>
        </g>
      
        <g transform="translate(140, 20)">
          <rect class="tech-item" width="120" height="40"/>
          <text class="tech-text" x="60" y="25" text-anchor="middle">JavaScript</text>
        </g>
      
        <g transform="translate(280, 20)">
          <rect class="tech-item" width="120" height="40"/>
          <text class="tech-text" x="60" y="25" text-anchor="middle">Go</text>
        </g>
      
        <g transform="translate(420, 20)">
          <rect class="tech-item" width="120" height="40"/>
          <text class="tech-text" x="60" y="25" text-anchor="middle">Rust</text>
        </g>
      
        <g transform="translate(560, 20)">
          <rect class="tech-item" width="120" height="40"/>
          <text class="tech-text" x="60" y="25" text-anchor="middle">Node.js</text>
        </g>
      
        <g transform="translate(700, 20)">
          <rect class="tech-item" width="120" height="40"/>
          <text class="tech-text" x="60" y="25" text-anchor="middle">Bun</text>
        </g>
      
        <g transform="translate(840, 20)">
          <rect class="tech-item" width="120" height="40"/>
          <text class="tech-text" x="60" y="25" text-anchor="middle">Fastify</text>
        </g>
      
        <g transform="translate(980, 20)">
          <rect class="tech-item" width="120" height="40"/>
          <text class="tech-text" x="60" y="25" text-anchor="middle">NestJS</text>
        </g>
      
        <g transform="translate(1120, 20)">
          <rect class="tech-item" width="120" height="40"/>
          <text class="tech-text" x="60" y="25" text-anchor="middle">Next.js</text>
        </g>
      
        <g transform="translate(1260, 20)">
          <rect class="tech-item" width="120" height="40"/>
          <text class="tech-text" x="60" y="25" text-anchor="middle">SolidJS</text>
        </g>
      
        <g transform="translate(1400, 20)">
          <rect class="tech-item" width="120" height="40"/>
          <text class="tech-text" x="60" y="25" text-anchor="middle">Gin</text>
        </g>
      
        <g transform="translate(1540, 20)">
          <rect class="tech-item" width="120" height="40"/>
          <text class="tech-text" x="60" y="25" text-anchor="middle">Elysia</text>
        </g>
      
        <g transform="translate(1680, 20)">
          <rect class="tech-item" width="120" height="40"/>
          <text class="tech-text" x="60" y="25" text-anchor="middle">PostgreSQL</text>
        </g>
      
        <g transform="translate(1820, 20)">
          <rect class="tech-item" width="120" height="40"/>
          <text class="tech-text" x="60" y="25" text-anchor="middle">Redis</text>
        </g>
      
        <g transform="translate(1960, 20)">
          <rect class="tech-item" width="120" height="40"/>
          <text class="tech-text" x="60" y="25" text-anchor="middle">Kafka</text>
        </g>
      
        <g transform="translate(2100, 20)">
          <rect class="tech-item" width="120" height="40"/>
          <text class="tech-text" x="60" y="25" text-anchor="middle">NATS</text>
        </g>
      
        <g transform="translate(2240, 20)">
          <rect class="tech-item" width="120" height="40"/>
          <text class="tech-text" x="60" y="25" text-anchor="middle">Prisma</text>
        </g>
      
        <g transform="translate(2380, 20)">
          <rect class="tech-item" width="120" height="40"/>
          <text class="tech-text" x="60" y="25" text-anchor="middle">Drizzle</text>
        </g>
      
        <g transform="translate(2520, 20)">
          <rect class="tech-item" width="120" height="40"/>
          <text class="tech-text" x="60" y="25" text-anchor="middle">GORM</text>
        </g>
      
        <g transform="translate(2660, 20)">
          <rect class="tech-item" width="120" height="40"/>
          <text class="tech-text" x="60" y="25" text-anchor="middle">TypeORM</text>
        </g>
      
        <g transform="translate(2800, 20)">
          <rect class="tech-item" width="120" height="40"/>
          <text class="tech-text" x="60" y="25" text-anchor="middle">Docker</text>
        </g>
      
        <g transform="translate(2940, 20)">
          <rect class="tech-item" width="120" height="40"/>
          <text class="tech-text" x="60" y="25" text-anchor="middle">Linux</text>
        </g>
      
        <g transform="translate(3080, 20)">
          <rect class="tech-item" width="120" height="40"/>
          <text class="tech-text" x="60" y="25" text-anchor="middle">AWS</text>
        </g>
      
        <g transform="translate(3220, 20)">
          <rect class="tech-item" width="120" height="40"/>
          <text class="tech-text" x="60" y="25" text-anchor="middle">Nginx</text>
        </g>
      
        <g transform="translate(3360, 20)">
          <rect class="tech-item" width="120" height="40"/>
          <text class="tech-text" x="60" y="25" text-anchor="middle">Zitadel</text>
        </g>
      
        <g transform="translate(3500, 20)">
          <rect class="tech-item" width="120" height="40"/>
          <text class="tech-text" x="60" y="25" text-anchor="middle">Keycloak</text>
        </g>
      
        <g transform="translate(3640, 20)">
          <rect class="tech-item" width="120" height="40"/>
          <text class="tech-text" x="60" y="25" text-anchor="middle">CASL</text>
        </g>
      
        <g transform="translate(3780, 20)">
          <rect class="tech-item" width="120" height="40"/>
          <text class="tech-text" x="60" y="25" text-anchor="middle">Casbin</text>
        </g>
      
        <g transform="translate(3920, 20)">
          <rect class="tech-item" width="120" height="40"/>
          <text class="tech-text" x="60" y="25" text-anchor="middle">TailwindCSS</text>
        </g>
      
        <g transform="translate(4060, 20)">
          <rect class="tech-item" width="120" height="40"/>
          <text class="tech-text" x="60" y="25" text-anchor="middle">Vite</text>
        </g>
      
    
    
        <g transform="translate(4200, 20)">
          <rect class="tech-item" width="120" height="40"/>
          <text class="tech-text" x="60" y="25" text-anchor="middle">TypeScript</text>
        </g>
      
        <g transform="translate(4340, 20)">
          <rect class="tech-item" width="120" height="40"/>
          <text class="tech-text" x="60" y="25" text-anchor="middle">JavaScript</text>
        </g>
      
        <g transform="translate(4480, 20)">
          <rect class="tech-item" width="120" height="40"/>
          <text class="tech-text" x="60" y="25" text-anchor="middle">Go</text>
        </g>
      
        <g transform="translate(4620, 20)">
          <rect class="tech-item" width="120" height="40"/>
          <text class="tech-text" x="60" y="25" text-anchor="middle">Rust</text>
        </g>
      
        <g transform="translate(4760, 20)">
          <rect class="tech-item" width="120" height="40"/>
          <text class="tech-text" x="60" y="25" text-anchor="middle">Node.js</text>
        </g>
      
        <g transform="translate(4900, 20)">
          <rect class="tech-item" width="120" height="40"/>
          <text class="tech-text" x="60" y="25" text-anchor="middle">Bun</text>
        </g>
      
        <g transform="translate(5040, 20)">
          <rect class="tech-item" width="120" height="40"/>
          <text class="tech-text" x="60" y="25" text-anchor="middle">Fastify</text>
        </g>
      
        <g transform="translate(5180, 20)">
          <rect class="tech-item" width="120" height="40"/>
          <text class="tech-text" x="60" y="25" text-anchor="middle">NestJS</text>
        </g>
      
        <g transform="translate(5320, 20)">
          <rect class="tech-item" width="120" height="40"/>
          <text class="tech-text" x="60" y="25" text-anchor="middle">Next.js</text>
        </g>
      
        <g transform="translate(5460, 20)">
          <rect class="tech-item" width="120" height="40"/>
          <text class="tech-text" x="60" y="25" text-anchor="middle">SolidJS</text>
        </g>
      
        <g transform="translate(5600, 20)">
          <rect class="tech-item" width="120" height="40"/>
          <text class="tech-text" x="60" y="25" text-anchor="middle">Gin</text>
        </g>
      
        <g transform="translate(5740, 20)">
          <rect class="tech-item" width="120" height="40"/>
          <text class="tech-text" x="60" y="25" text-anchor="middle">Elysia</text>
        </g>
      
        <g transform="translate(5880, 20)">
          <rect class="tech-item" width="120" height="40"/>
          <text class="tech-text" x="60" y="25" text-anchor="middle">PostgreSQL</text>
        </g>
      
        <g transform="translate(6020, 20)">
          <rect class="tech-item" width="120" height="40"/>
          <text class="tech-text" x="60" y="25" text-anchor="middle">Redis</text>
        </g>
      
        <g transform="translate(6160, 20)">
          <rect class="tech-item" width="120" height="40"/>
          <text class="tech-text" x="60" y="25" text-anchor="middle">Kafka</text>
        </g>
      
        <g transform="translate(6300, 20)">
          <rect class="tech-item" width="120" height="40"/>
          <text class="tech-text" x="60" y="25" text-anchor="middle">NATS</text>
        </g>
      
        <g transform="translate(6440, 20)">
          <rect class="tech-item" width="120" height="40"/>
          <text class="tech-text" x="60" y="25" text-anchor="middle">Prisma</text>
        </g>
      
        <g transform="translate(6580, 20)">
          <rect class="tech-item" width="120" height="40"/>
          <text class="tech-text" x="60" y="25" text-anchor="middle">Drizzle</text>
        </g>
      
        <g transform="translate(6720, 20)">
          <rect class="tech-item" width="120" height="40"/>
          <text class="tech-text" x="60" y="25" text-anchor="middle">GORM</text>
        </g>
      
        <g transform="translate(6860, 20)">
          <rect class="tech-item" width="120" height="40"/>
          <text class="tech-text" x="60" y="25" text-anchor="middle">TypeORM</text>
        </g>
      
        <g transform="translate(7000, 20)">
          <rect class="tech-item" width="120" height="40"/>
          <text class="tech-text" x="60" y="25" text-anchor="middle">Docker</text>
        </g>
      
        <g transform="translate(7140, 20)">
          <rect class="tech-item" width="120" height="40"/>
          <text class="tech-text" x="60" y="25" text-anchor="middle">Linux</text>
        </g>
      
        <g transform="translate(7280, 20)">
          <rect class="tech-item" width="120" height="40"/>
          <text class="tech-text" x="60" y="25" text-anchor="middle">AWS</text>
        </g>
      
        <g transform="translate(7420, 20)">
          <rect class="tech-item" width="120" height="40"/>
          <text class="tech-text" x="60" y="25" text-anchor="middle">Nginx</text>
        </g>
      
        <g transform="translate(7560, 20)">
          <rect class="tech-item" width="120" height="40"/>
          <text class="tech-text" x="60" y="25" text-anchor="middle">Zitadel</text>
        </g>
      
        <g transform="translate(7700, 20)">
          <rect class="tech-item" width="120" height="40"/>
          <text class="tech-text" x="60" y="25" text-anchor="middle">Keycloak</text>
        </g>
      
        <g transform="translate(7840, 20)">
          <rect class="tech-item" width="120" height="40"/>
          <text class="tech-text" x="60" y="25" text-anchor="middle">CASL</text>
        </g>
      
        <g transform="translate(7980, 20)">
          <rect class="tech-item" width="120" height="40"/>
          <text class="tech-text" x="60" y="25" text-anchor="middle">Casbin</text>
        </g>
      
        <g transform="translate(8120, 20)">
          <rect class="tech-item" width="120" height="40"/>
          <text class="tech-text" x="60" y="25" text-anchor="middle">TailwindCSS</text>
        </g>
      
        <g transform="translate(8260, 20)">
          <rect class="tech-item" width="120" height="40"/>
          <text class="tech-text" x="60" y="25" text-anchor="middle">Vite</text>
        </g>
      
  </g>
</svg>